<?xml version="1.0" standalone="no"?>
<!DOCTYPE svg PUBLIC "-//W3C//DTD SVG 20010904//EN"
 "http://www.w3.org/TR/2001/REC-SVG-20010904/DTD/svg10.dtd">
<svg version="1.0" xmlns="http://www.w3.org/2000/svg"
 width="500.000000pt" height="500.000000pt" viewBox="0 0 500.000000 500.000000"
 preserveAspectRatio="xMidYMid meet">
<metadata>
Created by potrace 1.14, written by Peter Selinger 2001-2017
</metadata>
<g transform="translate(0.000000,500.000000) scale(0.100000,-0.100000)"
fill="#000000" stroke="none">
<path d="M1525 4960 c3 -5 8 -10 11 -10 2 0 4 5 4 10 0 6 -5 10 -11 10 -5 0
-7 -4 -4 -10z"/>
<path d="M2420 4709 c-65 -38 -735 -435 -767 -455 -13 -8 -23 -11 -23 -7 0 5
-4 3 -8 -3 -13 -21 -181 -116 -192 -109 -6 4 -9 1 -8 -5 2 -6 -14 -21 -34 -33
-708 -422 -742 -443 -764 -474 -20 -30 -20 -35 -20 -1133 l1 -1102 40 -35 c22
-19 54 -42 70 -50 104 -54 503 -299 498 -307 -3 -5 -2 -6 4 -3 6 4 30 -6 54
-21 24 -16 58 -35 74 -44 17 -8 104 -60 195 -115 91 -54 172 -102 180 -106 37
-18 119 -74 115 -79 -3 -2 1 -5 8 -5 6 0 49 -22 95 -49 45 -27 103 -60 127
-74 25 -14 115 -68 202 -120 223 -135 237 -140 294 -100 14 11 32 20 40 22 8
2 16 6 19 9 3 4 50 34 105 66 55 33 207 124 337 202 131 77 242 141 247 141 5
0 11 4 13 8 2 5 113 74 248 154 135 79 267 158 294 174 80 48 102 61 303 181
108 64 201 126 211 141 17 25 19 49 18 274 -1 137 3 248 7 248 5 0 5 5 1 12
-10 16 -11 1309 -1 1315 4 2 4 10 0 16 -4 6 -7 91 -7 189 -1 176 -1 178 -26
202 -14 13 -160 104 -325 202 -165 98 -307 183 -316 189 -9 5 -31 19 -50 29
-18 10 -151 89 -294 175 -143 86 -264 158 -270 160 -5 2 -29 17 -52 32 -23 16
-44 29 -47 29 -14 0 -115 68 -109 73 3 4 -1 7 -10 7 -9 0 -92 45 -184 101 -99
59 -182 103 -203 105 -27 4 -48 -3 -90 -27z m463 -597 c210 -126 551 -329 757
-452 206 -123 381 -228 388 -235 11 -10 14 -168 13 -861 0 -467 0 -880 -1
-919 l0 -70 -103 -60 c-91 -53 -709 -421 -747 -444 -46 -29 -228 -136 -247
-145 -13 -6 -23 -14 -23 -18 0 -5 -5 -8 -10 -8 -6 0 -29 -11 -51 -26 -117 -74
-361 -214 -367 -211 -4 2 -124 74 -267 159 -143 85 -485 289 -760 453 -275
164 -501 299 -503 300 -3 2 -5 1575 -2 1801 0 42 4 53 22 62 27 14 31 17 248
146 91 55 174 104 185 110 21 12 656 391 925 552 85 51 157 94 158 94 2 0 176
-103 385 -228z"/>
<path d="M1637 3644 c-1 -1 -54 -4 -118 -7 -101 -5 -125 -9 -180 -35 -75 -34
-119 -75 -148 -136 -24 -53 -30 -77 -39 -176 -7 -72 -8 -993 -2 -1135 7 -158
62 -250 185 -312 38 -19 58 -26 130 -39 43 -8 954 -9 962 -1 3 4 7 163 7 355
l1 347 48 5 47 6 0 -501 0 -502 -60 2 -60 2 0 -213 0 -213 385 0 385 1 0 212
0 212 -52 -1 -53 -1 -5 35 c-3 20 -4 86 -2 148 l3 112 187 0 c258 0 328 10
409 57 63 36 127 125 140 194 2 8 6 29 9 45 11 56 13 469 2 535 -19 122 -95
219 -205 260 -93 35 -169 36 -1509 31 l-331 -1 1 -210 0 -210 66 -1 c36 -1 68
-1 73 0 4 0 7 -32 7 -72 1 -39 2 -105 3 -145 l2 -72 -117 0 -118 0 0 500 0
500 115 0 115 0 1 -27 c0 -16 1 -49 1 -76 l-1 -47 246 2 245 3 0 278 c0 153
-3 281 -5 284 -5 4 -765 11 -770 7z m1638 -1134 c20 0 20 -6 20 -170 l0 -170
-112 0 -113 0 -1 148 c-1 165 0 185 11 192 4 3 46 4 92 3 45 -1 92 -2 103 -3z"/>
<path d="M3375 4550 c-3 -6 1 -7 9 -4 18 7 21 14 7 14 -6 0 -13 -4 -16 -10z"/>
<path d="M1685 4450 c-3 -5 -1 -10 4 -10 6 0 11 5 11 10 0 6 -2 10 -4 10 -3 0
-8 -4 -11 -10z"/>
<path d="M865 4340 c3 -5 8 -10 11 -10 2 0 4 5 4 10 0 6 -5 10 -11 10 -5 0 -7
-4 -4 -10z"/>
<path d="M18 2723 c6 -2 10 -8 8 -12 -3 -4 1 -8 9 -8 8 0 15 6 15 14 0 7 -10
13 -22 12 -13 0 -17 -3 -10 -6z"/>
<path d="M404 2669 c-9 -16 2 -22 21 -11 15 8 16 10 1 15 -8 3 -18 2 -22 -4z"/>
<path d="M4440 1689 c0 -5 5 -7 10 -4 6 3 10 8 10 11 0 2 -4 4 -10 4 -5 0 -10
-5 -10 -11z"/>
<path d="M900 950 c0 -6 7 -10 15 -10 8 0 15 2 15 4 0 2 -7 6 -15 10 -8 3 -15
1 -15 -4z"/>
<path d="M4700 910 c0 -6 7 -10 15 -10 8 0 15 2 15 4 0 2 -7 6 -15 10 -8 3
-15 1 -15 -4z"/>
<path d="M565 800 c3 -5 8 -10 11 -10 2 0 4 5 4 10 0 6 -5 10 -11 10 -5 0 -7
-4 -4 -10z"/>
<path d="M1360 800 c0 -5 5 -10 11 -10 5 0 7 5 4 10 -3 6 -8 10 -11 10 -2 0
-4 -4 -4 -10z"/>
<path d="M793 565 c0 -8 4 -12 9 -9 4 3 8 9 8 15 0 5 -4 9 -8 9 -5 0 -9 -7 -9
-15z"/>
<path d="M1583 410 c9 -6 15 -15 12 -21 -4 -5 -2 -9 3 -9 6 0 12 7 16 15 3 8
1 15 -3 15 -5 0 -18 3 -28 6 -17 5 -17 5 0 -6z"/>
<path d="M1340 236 c7 -7 13 -7 20 0 6 6 3 10 -10 10 -13 0 -16 -4 -10 -10z"/>
<path d="M2700 33 c0 -15 2 -16 10 -3 8 13 10 12 10 -3 0 -10 4 -16 10 -12 13
8 1 35 -16 35 -8 0 -14 -8 -14 -17z"/>
</g>
</svg>
